<svg viewBox="0 0 480 460" xmlns="http://www.w3.org/2000/svg" role="img" aria-label="Isometric hamlet cluster of four micro-houses around a shared well">
  <defs>
    <!-- ambient warm halo lifting the hamlet off the dark map -->
    <radialGradient id="hc-halo" cx="50%" cy="46%" r="55%">
      <stop offset="0%" stop-color="#ffd75e" stop-opacity="0.20"/>
      <stop offset="45%" stop-color="#ffb84d" stop-opacity="0.07"/>
      <stop offset="100%" stop-color="#ffb84d" stop-opacity="0"/>
    </radialGradient>

    <!-- ground -->
    <radialGradient id="hc-grass" cx="42%" cy="30%" r="78%">
      <stop offset="0%" stop-color="#74be79"/>
      <stop offset="48%" stop-color="#4f9d5d"/>
      <stop offset="100%" stop-color="#387246"/>
    </radialGradient>
    <linearGradient id="hc-earthL" x1="0" y1="0" x2="0" y2="1">
      <stop offset="0%" stop-color="#7a4d39"/>
      <stop offset="100%" stop-color="#472b1f"/>
    </linearGradient>
    <linearGradient id="hc-earthR" x1="0" y1="0" x2="0" y2="1">
      <stop offset="0%" stop-color="#8a5a44"/>
      <stop offset="100%" stop-color="#583524"/>
    </linearGradient>

    <!-- roofs -->
    <linearGradient id="hc-roofA" x1="0" y1="0" x2="0.4" y2="1">
      <stop offset="0%" stop-color="#d07a4f"/>
      <stop offset="100%" stop-color="#8a4227"/>
    </linearGradient>
    <linearGradient id="hc-roofB" x1="0" y1="0" x2="0.3" y2="1">
      <stop offset="0%" stop-color="#b46c44"/>
      <stop offset="100%" stop-color="#6f3c25"/>
    </linearGradient>
    <linearGradient id="hc-roofC" x1="0" y1="0" x2="0.4" y2="1">
      <stop offset="0%" stop-color="#6b90b3"/>
      <stop offset="100%" stop-color="#3a5470"/>
    </linearGradient>
    <linearGradient id="hc-roofD" x1="0" y1="0" x2="0.3" y2="1">
      <stop offset="0%" stop-color="#5b5686"/>
      <stop offset="100%" stop-color="#322f4d"/>
    </linearGradient>

    <!-- glowing window -->
    <radialGradient id="hc-win" cx="50%" cy="42%" r="65%">
      <stop offset="0%" stop-color="#fff6d4"/>
      <stop offset="55%" stop-color="#ffe19a"/>
      <stop offset="100%" stop-color="#e0a53a"/>
    </radialGradient>
    <radialGradient id="hc-water" cx="50%" cy="40%" r="70%">
      <stop offset="0%" stop-color="#3d6a86"/>
      <stop offset="100%" stop-color="#16303f"/>
    </radialGradient>

    <filter id="hc-soft" x="-40%" y="-40%" width="180%" height="180%">
      <feGaussianBlur stdDev="7"/>
    </filter>
    <filter id="hc-glow" x="-120%" y="-120%" width="340%" height="340%">
      <feGaussianBlur stdDev="3.4"/>
    </filter>
    <filter id="hc-glowS" x="-160%" y="-160%" width="420%" height="420%">
      <feGaussianBlur stdDev="1.7"/>
    </filter>
  </defs>

  <!-- soft warm halo -->
  <ellipse cx="240" cy="238" rx="222" ry="196" fill="url(#hc-halo)"/>

  <!-- ground contact shadow -->
  <ellipse cx="244" cy="392" rx="196" ry="70" fill="#000000" opacity="0.5" filter="url(#hc-soft)"/>

  <!-- ============ BASE TILE ============ -->
  <!-- earth sides -->
  <polygon points="35,300 240,395 240,421 35,326" fill="url(#hc-earthL)"/>
  <polygon points="240,395 445,300 445,326 240,421" fill="url(#hc-earthR)"/>
  <!-- earth strata lines -->
  <polyline points="42,309 240,401 240,404 42,312" fill="none" stroke="#3a2419" stroke-width="1.4" opacity="0.5"/>
  <polyline points="240,401 438,309" fill="none" stroke="#6b4331" stroke-width="1.2" opacity="0.5"/>
  <!-- little rocks embedded in the earth face -->
  <ellipse cx="120" cy="345" rx="9" ry="6" fill="#5b3a2a" opacity="0.8"/>
  <ellipse cx="118" cy="343" rx="6" ry="3.4" fill="#7a4f39" opacity="0.7"/>
  <ellipse cx="330" cy="352" rx="10" ry="6" fill="#6b4331" opacity="0.8"/>
  <ellipse cx="328" cy="349" rx="6.5" ry="3.5" fill="#8a5a44" opacity="0.7"/>
  <ellipse cx="205" cy="392" rx="7" ry="4.6" fill="#513322" opacity="0.75"/>

  <!-- grass top -->
  <polygon points="240,205 445,300 240,395 35,300" fill="url(#hc-grass)"/>
  <!-- grass rim highlight -->
  <polygon points="240,205 445,300 240,395 35,300" fill="none" stroke="#8ed08f" stroke-width="2" opacity="0.5"/>
  <!-- overhanging grass lip on the front edges -->
  <path d="M35,300 L240,395 L240,399 Q150,352 62,308 Z" fill="#3c8049" opacity="0.55"/>
  <path d="M240,395 L445,300 L440,306 Q345,352 240,399 Z" fill="#5aa869" opacity="0.4"/>
  <!-- soft turf mottling -->
  <ellipse cx="185" cy="278" rx="60" ry="26" fill="#63b06c" opacity="0.28"/>
  <ellipse cx="310" cy="308" rx="66" ry="28" fill="#5aa666" opacity="0.24"/>
  <ellipse cx="245" cy="352" rx="80" ry="30" fill="#3f8a4d" opacity="0.3"/>

  <!-- ============ STEPPING-STONE PATHS ============ -->
  <g opacity="0.95">
    <!-- path spine stones (well hub to each house) -->
    <g fill="#b7b09b">
      <ellipse cx="221" cy="332" rx="10" ry="5.4"/>
      <ellipse cx="200" cy="322" rx="9.5" ry="5.2"/>
      <ellipse cx="181" cy="314" rx="9" ry="5"/>
      <ellipse cx="196" cy="300" rx="8.6" ry="4.7"/>
      <ellipse cx="192" cy="284" rx="8.4" ry="4.6"/>
      <ellipse cx="187" cy="271" rx="7.8" ry="4.2"/>
      <ellipse cx="270" cy="334" rx="10" ry="5.4"/>
      <ellipse cx="292" cy="326" rx="9.6" ry="5.2"/>
      <ellipse cx="313" cy="322" rx="9.2" ry="5"/>
      <ellipse cx="300" cy="304" rx="8.8" ry="4.8"/>
      <ellipse cx="308" cy="288" rx="8.4" ry="4.6"/>
      <ellipse cx="305" cy="272" rx="7.8" ry="4.2"/>
      <ellipse cx="230" cy="352" rx="10.5" ry="5.6"/>
      <ellipse cx="212" cy="360" rx="9.8" ry="5.2"/>
      <ellipse cx="285" cy="352" rx="10.2" ry="5.4"/>
      <ellipse cx="303" cy="360" rx="9.6" ry="5.2"/>
    </g>
    <!-- stone top-light -->
    <g fill="#d8d2c0" opacity="0.85">
      <ellipse cx="221" cy="330.6" rx="6.4" ry="3"/>
      <ellipse cx="200" cy="320.6" rx="6" ry="2.9"/>
      <ellipse cx="181" cy="312.6" rx="5.6" ry="2.7"/>
      <ellipse cx="196" cy="298.7" rx="5.4" ry="2.6"/>
      <ellipse cx="192" cy="282.7" rx="5.2" ry="2.5"/>
      <ellipse cx="187" cy="269.9" rx="4.9" ry="2.3"/>
      <ellipse cx="270" cy="332.6" rx="6.4" ry="3"/>
      <ellipse cx="292" cy="324.6" rx="6" ry="2.9"/>
      <ellipse cx="313" cy="320.6" rx="5.8" ry="2.8"/>
      <ellipse cx="300" cy="302.7" rx="5.5" ry="2.6"/>
      <ellipse cx="308" cy="286.7" rx="5.2" ry="2.5"/>
      <ellipse cx="305" cy="270.9" rx="4.9" ry="2.3"/>
      <ellipse cx="230" cy="350.4" rx="6.6" ry="3.1"/>
      <ellipse cx="212" cy="358.4" rx="6.2" ry="2.9"/>
      <ellipse cx="285" cy="350.4" rx="6.4" ry="3"/>
      <ellipse cx="303" cy="358.4" rx="6" ry="2.9"/>
    </g>
  </g>

  <!-- ============ BACK CONIFER (between houses) ============ -->
  <g>
    <ellipse cx="246" cy="228" rx="16" ry="6" fill="#000" opacity="0.28" filter="url(#hc-glowS)"/>
    <rect x="243.5" y="216" width="5" height="12" rx="1.5" fill="#5a3a28"/>
    <polygon points="246,178 232,210 260,210" fill="#2f6b3e"/>
    <polygon points="246,190 235,214 257,214" fill="#3d7f4b"/>
    <polygon points="246,200 238,220 254,220" fill="#4b9159"/>
    <polygon points="246,178 246,210 260,210" fill="#264f2f" opacity="0.55"/>
  </g>

  <!-- ============ HOUSE B — back-right, wheat, pyramid ============ -->
  <g>
    <ellipse cx="320" cy="260" rx="42" ry="14" fill="#000" opacity="0.2" filter="url(#hc-glowS)"/>
    <!-- walls -->
    <polygon points="286,241 320,258 320,226 286,209" fill="#9c8d63"/>
    <polygon points="320,258 354,241 354,209 320,226" fill="#cdbb8a"/>
    <polygon points="286,209 320,226 354,209 320,192" fill="#dccb9c"/>
    <!-- wall AO + planks -->
    <polygon points="286,241 320,258 320,226 286,209" fill="#000" opacity="0.12"/>
    <line x1="291" y1="215" x2="291" y2="243" stroke="#7d704e" stroke-width="1" opacity="0.5"/>
    <line x1="303" y1="221" x2="303" y2="249" stroke="#7d704e" stroke-width="1" opacity="0.5"/>
    <line x1="326" y1="252" x2="326" y2="220" stroke="#b3a175" stroke-width="1" opacity="0.55"/>
    <line x1="340" y1="245" x2="340" y2="213" stroke="#b3a175" stroke-width="1" opacity="0.55"/>
    <!-- eave shadow seating the roof -->
    <polygon points="286,209 320,226 320,229.5 286,212.5" fill="#000" opacity="0.18"/>
    <polygon points="320,226 354,209 354,212.5 320,229.5" fill="#000" opacity="0.12"/>
    <!-- glowing window (right/lit wall) -->
    <polygon points="331,235 345,228 345,214 331,221" fill="#c79a3a" opacity="0.9" filter="url(#hc-glow)"/>
    <polygon points="332.5,234 343.5,228.5 343.5,216 332.5,221.5" fill="url(#hc-win)"/>
    <line x1="338" y1="219" x2="338" y2="231" stroke="#8a5a1e" stroke-width="0.9"/>
    <line x1="332.5" y1="225" x2="343.5" y2="219.5" stroke="#8a5a1e" stroke-width="0.9"/>
    <!-- door (left wall) -->
    <polygon points="298,247 310,253 310,235 298,229" fill="#4a3220"/>
    <polygon points="300,246 308,250 308,236 300,232" fill="#6a4a2e"/>
    <circle cx="306" cy="243" r="1.1" fill="#ffe6a0"/>
    <!-- pyramid roof -->
    <polygon points="286,209 320,226 320,176" fill="url(#hc-roofB)"/>
    <polygon points="320,226 354,209 320,176" fill="#874a2e"/>
    <polygon points="320,176 320,226 354,209" fill="#5f3320" opacity="0.35"/>
    <!-- roof rim light + shingle hints -->
    <polyline points="286,209 320,176 354,209" fill="none" stroke="#e6b57e" stroke-width="1.4" opacity="0.7"/>
    <line x1="303" y1="192" x2="320" y2="200" stroke="#6a3821" stroke-width="0.8" opacity="0.5"/>
    <line x1="337" y1="192" x2="320" y2="200" stroke="#5a2e1a" stroke-width="0.8" opacity="0.5"/>
    <circle cx="320" cy="176" r="2.2" fill="#e8c07f"/>
  </g>

  <!-- ============ HOUSE A — back-left, teal walls, iso gable roof ============ -->
  <g>
    <ellipse cx="175" cy="264" rx="42" ry="14" fill="#000" opacity="0.2" filter="url(#hc-glowS)"/>
    <!-- walls -->
    <polygon points="143,246 175,262 175,228 143,212" fill="#43708a"/>
    <polygon points="175,262 207,246 207,212 175,228" fill="#6fa5c0"/>
    <polygon points="143,212 175,228 207,212 175,196" fill="#80b4cd"/>
    <polygon points="143,246 175,262 175,228 143,212" fill="#000" opacity="0.1"/>
    <!-- planks -->
    <line x1="181" y1="255" x2="181" y2="223" stroke="#8fbcd2" stroke-width="1" opacity="0.55"/>
    <line x1="194" y1="248" x2="194" y2="217" stroke="#8fbcd2" stroke-width="1" opacity="0.55"/>
    <line x1="150" y1="217" x2="150" y2="248" stroke="#375b70" stroke-width="1" opacity="0.5"/>
    <line x1="162" y1="223" x2="162" y2="254" stroke="#375b70" stroke-width="1" opacity="0.5"/>
    <!-- eave shadow seating the roof -->
    <polygon points="143,212 175,228 175,231.5 143,215.5" fill="#000" opacity="0.2"/>
    <polygon points="175,228 207,212 207,215.5 175,231.5" fill="#000" opacity="0.13"/>
    <!-- glowing window (right/lit wall) -->
    <polygon points="184,244 197,237 197,223 184,230" fill="#c79a3a" opacity="0.9" filter="url(#hc-glow)"/>
    <polygon points="185.5,243 195.5,237.5 195.5,225 185.5,230.5" fill="url(#hc-win)"/>
    <line x1="190.5" y1="228" x2="190.5" y2="240" stroke="#8a5a1e" stroke-width="0.9"/>
    <line x1="185.5" y1="234" x2="195.5" y2="228.5" stroke="#8a5a1e" stroke-width="0.9"/>
    <!-- lit window (left wall, warm spill) -->
    <polygon points="151,238 163,244 163,226 151,220" fill="#3a5364"/>
    <polygon points="153,237 161,241 161,227 153,223" fill="#ffdf94" opacity="0.9" filter="url(#hc-glowS)"/>
    <polygon points="153.5,236.5 160.5,240 160.5,228 153.5,224.5" fill="#8a5a20"/>
    <!-- gable roof: ridge runs back-right to front-left along the iso axis, flush like its siblings -->
    <!-- gable pediment over the left wall -->
    <polygon points="143,212 175,228 159,198" fill="#3f6880"/>
    <polygon points="143,212 175,228 159,198" fill="#000" opacity="0.08"/>
    <!-- tiny lit attic window on the pediment -->
    <polygon points="155,202.5 163,206.5 163,212.5 155,208.5" fill="#c79a3a" opacity="0.8" filter="url(#hc-glowS)"/>
    <polygon points="156,203.5 162,206.5 162,211.5 156,208.5" fill="url(#hc-win)"/>
    <!-- big lit roof slope over the right wall -->
    <polygon points="175,228 207,212 191,182 159,198" fill="url(#hc-roofA)"/>
    <!-- shingle hints parallel to the eave -->
    <line x1="170" y1="218" x2="202" y2="202" stroke="#6a3821" stroke-width="0.8" opacity="0.5"/>
    <line x1="164" y1="208" x2="196" y2="192" stroke="#5a2e1a" stroke-width="0.8" opacity="0.5"/>
    <!-- rake boards over the pediment + ridge cap + silhouette rim -->
    <polyline points="143,212 159,198 175,228" fill="none" stroke="#a44f2e" stroke-width="1.5" opacity="0.8"/>
    <polyline points="143,212 159,198 191,182 207,212" fill="none" stroke="#e6b57e" stroke-width="1.4" opacity="0.7"/>
    <line x1="175" y1="228" x2="207" y2="212" stroke="#7a3a20" stroke-width="1.1" opacity="0.55"/>
    <!-- chimney seated on the lit slope near the ridge -->
    <polygon points="176,191.5 185,196.5 190,194 181,189" fill="#5f2f1c" opacity="0.5"/>
    <polygon points="178,192 185,195.5 185,183 178,179.5" fill="#6e3a26"/>
    <polygon points="185,195.5 189,193.5 189,181 185,183" fill="#935038"/>
    <polygon points="178,179.5 185,183 189,181 182,177.5" fill="#a86448"/>
    <ellipse cx="183.5" cy="180.3" rx="2.8" ry="1.4" fill="#3a2418"/>
    <ellipse cx="183.5" cy="174" rx="3" ry="1.9" fill="#c9b6a0" opacity="0.35" filter="url(#hc-glow)"/>
    <ellipse cx="185.5" cy="169" rx="2" ry="1.3" fill="#c9b6a0" opacity="0.25" filter="url(#hc-glow)"/>
  </g>

  <!-- ============ HOUSE C — front-left, green, hip roof (small) ============ -->
  <g>
    <ellipse cx="150" cy="320" rx="40" ry="14" fill="#000" opacity="0.2" filter="url(#hc-glowS)"/>
    <polygon points="123,304.5 150,318 150,290 123,276.5" fill="#3d7a49"/>
    <polygon points="150,318 177,304.5 177,276.5 150,290" fill="#58a866"/>
    <polygon points="123,276.5 150,290 177,276.5 150,263" fill="#6bbd79"/>
    <polygon points="123,304.5 150,318 150,290 123,276.5" fill="#000" opacity="0.1"/>
    <line x1="156" y1="313" x2="156" y2="286" stroke="#79c987" stroke-width="1" opacity="0.55"/>
    <line x1="167" y1="307" x2="167" y2="281" stroke="#79c987" stroke-width="1" opacity="0.55"/>
    <!-- eave shadow seating the roof -->
    <polygon points="123,276.5 150,290 150,293.5 123,280" fill="#000" opacity="0.18"/>
    <polygon points="150,290 177,276.5 177,280 150,293.5" fill="#000" opacity="0.12"/>
    <!-- glowing window -->
    <polygon points="157,300 169,293.5 169,281 157,287.5" fill="#c79a3a" opacity="0.9" filter="url(#hc-glow)"/>
    <polygon points="158.5,299 167.5,294 167.5,283 158.5,288" fill="url(#hc-win)"/>
    <line x1="163" y1="285.5" x2="163" y2="296.5" stroke="#8a5a1e" stroke-width="0.8"/>
    <!-- door left wall, seated on the ground -->
    <polygon points="131,308 142,313.5 142,297 131,291.5" fill="#274b31"/>
    <polygon points="132.5,306.5 140.5,310.5 140.5,298 132.5,294" fill="#3f6a49"/>
    <circle cx="139.5" cy="305" r="1" fill="#ffe6a0"/>
    <!-- hip/pyramid roof (flush on the walls, peaked to match houses B and D) -->
    <polygon points="123,276.5 150,290 150,251" fill="url(#hc-roofC)"/>
    <polygon points="150,290 177,276.5 150,251" fill="#2f4763"/>
    <polygon points="150,251 150,290 177,276.5" fill="#243a52" opacity="0.35"/>
    <polyline points="123,276.5 150,251 177,276.5" fill="none" stroke="#88a8c6" stroke-width="1.4" opacity="0.7"/>
    <line x1="161" y1="266" x2="150" y2="272" stroke="#243a52" stroke-width="0.8" opacity="0.5"/>
    <circle cx="150" cy="251" r="2" fill="#88a8c6"/>
  </g>

  <!-- ============ HOUSE D — front-right, indigo, tall, hip + chimney ============ -->
  <g>
    <ellipse cx="332" cy="324" rx="38" ry="13" fill="#000" opacity="0.2" filter="url(#hc-glowS)"/>
    <!-- walls (tall) -->
    <polygon points="307,309.5 332,322 332,276 307,263.5" fill="#5f6ba6"/>
    <polygon points="332,322 357,309.5 357,263.5 332,276" fill="#8b99d8"/>
    <polygon points="307,263.5 332,276 357,263.5 332,251" fill="#9aa6df"/>
    <polygon points="307,309.5 332,322 332,276 307,263.5" fill="#000" opacity="0.12"/>
    <line x1="337" y1="317" x2="337" y2="271" stroke="#a3aee2" stroke-width="1" opacity="0.5"/>
    <line x1="348" y1="311" x2="348" y2="265" stroke="#a3aee2" stroke-width="1" opacity="0.5"/>
    <line x1="313" y1="267" x2="313" y2="313" stroke="#4c5688" stroke-width="1" opacity="0.5"/>
    <line x1="322" y1="272" x2="322" y2="318" stroke="#4c5688" stroke-width="1" opacity="0.5"/>
    <!-- eave shadow seating the roof -->
    <polygon points="307,263.5 332,276 332,279.5 307,267" fill="#000" opacity="0.18"/>
    <polygon points="332,276 357,263.5 357,267 332,279.5" fill="#000" opacity="0.12"/>
    <!-- upper glowing window -->
    <polygon points="337,285 350,278 350,266 337,273" fill="#c79a3a" opacity="0.9" filter="url(#hc-glow)"/>
    <polygon points="338.5,284 348.5,278.5 348.5,268 338.5,273.5" fill="url(#hc-win)"/>
    <line x1="343.5" y1="271" x2="343.5" y2="281.5" stroke="#8a5a1e" stroke-width="0.8"/>
    <line x1="338.5" y1="276.5" x2="348.5" y2="271" stroke="#8a5a1e" stroke-width="0.8"/>
    <!-- lower glowing window -->
    <polygon points="337,308 349,301.5 349,290 337,296.5" fill="#c79a3a" opacity="0.85" filter="url(#hc-glow)"/>
    <polygon points="338.5,307 347.5,302 347.5,292 338.5,297" fill="url(#hc-win)"/>
    <!-- door left wall, seated on the ground -->
    <polygon points="315,313 327,319 327,297 315,291" fill="#332f4d"/>
    <polygon points="316.5,311.5 325.5,316 325.5,298 316.5,293.5" fill="#4c4870"/>
    <circle cx="324" cy="308" r="1" fill="#ffe6a0"/>
    <!-- hip/pyramid roof -->
    <polygon points="307,263.5 332,276 332,228" fill="url(#hc-roofD)"/>
    <polygon points="332,276 357,263.5 332,228" fill="#3d3960"/>
    <polygon points="332,228 332,276 357,263.5" fill="#2a2742" opacity="0.4"/>
    <polyline points="307,263.5 332,228 357,263.5" fill="none" stroke="#7b76a8" stroke-width="1.4" opacity="0.7"/>
    <line x1="320" y1="245" x2="332" y2="252" stroke="#2a2742" stroke-width="0.8" opacity="0.5"/>
    <circle cx="332" cy="228" r="2" fill="#8f8ac0"/>
    <!-- chimney seated on the right roof slope -->
    <polygon points="336,255.5 346,261 352,258.5 342,253" fill="#241f38" opacity="0.55"/>
    <polygon points="338,256 346,260 346,246 338,242" fill="#4a4668"/>
    <polygon points="338,242 346,246 350,244 342,240" fill="#5b5686"/>
    <polygon points="346,246 346,260 350,258 350,244" fill="#37334f"/>
    <ellipse cx="344" cy="243" rx="3.1" ry="1.6" fill="#2a2740"/>
    <ellipse cx="344" cy="236" rx="3.6" ry="2.2" fill="#8f9ac0" opacity="0.45" filter="url(#hc-glow)"/>
  </g>

  <!-- ============ THE SHARED WELL (front-center) ============ -->
  <g>
    <ellipse cx="245" cy="352" rx="30" ry="13" fill="#000" opacity="0.28" filter="url(#hc-glowS)"/>
    <!-- stone drum body -->
    <path d="M223,344 Q223,362 245,364 Q267,362 267,344 L267,340 Q245,352 223,340 Z" fill="#6f6858"/>
    <path d="M223,344 Q223,362 245,364 L245,352 Q234,351 223,344 Z" fill="#4f4a3d"/>
    <!-- stone courses -->
    <path d="M224,348 Q245,357 266,348" fill="none" stroke="#403c31" stroke-width="1" opacity="0.6"/>
    <path d="M224,354 Q245,362 266,354" fill="none" stroke="#403c31" stroke-width="1" opacity="0.6"/>
    <line x1="234" y1="343" x2="233" y2="356" stroke="#3f3b30" stroke-width="0.8" opacity="0.5"/>
    <line x1="245" y1="352" x2="245" y2="363" stroke="#3f3b30" stroke-width="0.8" opacity="0.5"/>
    <line x1="256" y1="343" x2="257" y2="356" stroke="#3f3b30" stroke-width="0.8" opacity="0.5"/>
    <!-- rim -->
    <ellipse cx="245" cy="340" rx="23" ry="10.5" fill="#847c69"/>
    <ellipse cx="245" cy="339" rx="23" ry="10.5" fill="#9a9179"/>
    <ellipse cx="245" cy="339.4" rx="16.5" ry="7.2" fill="url(#hc-water)"/>
    <ellipse cx="241" cy="337.5" rx="6" ry="2.6" fill="#6f9bb4" opacity="0.6"/>
    <!-- posts -->
    <polygon points="225,340 229,341 229,312 225,311" fill="#5a3f2a"/>
    <polygon points="261,341 265,340 265,311 261,312" fill="#6e4d33"/>
    <!-- little gable cap over the well -->
    <polygon points="221,314 245,304 245,300 221,310" fill="#7a3f26"/>
    <polygon points="245,304 269,314 269,310 245,300" fill="#994f30"/>
    <polygon points="221,310 245,300 269,310 245,306" fill="#b56a44"/>
    <rect x="243" y="298" width="4" height="9" rx="1.5" fill="#8a5a3a"/>
    <ellipse cx="245" cy="299" rx="3.4" ry="2.4" fill="#ffe19a" opacity="0.85" filter="url(#hc-glow)"/>
    <!-- crossbar + hanging bucket -->
    <line x1="229" y1="318" x2="261" y2="318" stroke="#4a3320" stroke-width="2.2"/>
    <line x1="245" y1="319" x2="245" y2="333" stroke="#3a2a1a" stroke-width="0.9"/>
    <path d="M241,333 L249,333 L248,340 L242,340 Z" fill="#5a3f28"/>
    <path d="M241,333 L249,333 L248.5,335 L241.5,335 Z" fill="#7a5638"/>
    <ellipse cx="245" cy="333" rx="4" ry="1.4" fill="#3a2a1a"/>
  </g>

  <!-- ============ FOREGROUND GRASS TUFTS ============ -->
  <g stroke-linecap="round" fill="none">
    <path d="M96,318 q1,-8 -1,-13 M99,318 q0,-9 3,-14 M102,319 q2,-7 5,-11" stroke="#5fb268" stroke-width="1.6"/>
    <path d="M190,370 q1,-8 -1,-13 M193,371 q0,-9 3,-13 M196,371 q2,-7 5,-11" stroke="#4f9d5d" stroke-width="1.6"/>
    <path d="M300,372 q1,-8 -2,-12 M303,373 q0,-9 3,-13 M307,372 q2,-7 5,-10" stroke="#5fb268" stroke-width="1.6"/>
    <path d="M368,318 q1,-7 -1,-12 M371,319 q0,-8 3,-12 M374,318 q2,-6 5,-10" stroke="#4f9d5d" stroke-width="1.5"/>
    <path d="M258,376 q1,-7 -1,-11 M261,376 q0,-8 3,-12" stroke="#5aa869" stroke-width="1.5"/>
    <path d="M150,352 q1,-6 -1,-10 M153,352 q0,-7 3,-10" stroke="#5fb268" stroke-width="1.4"/>
  </g>

  <!-- small flowering shrub front-left -->
  <g>
    <ellipse cx="112" cy="332" rx="11" ry="7" fill="#3d7a49"/>
    <ellipse cx="109" cy="329" rx="6" ry="4.5" fill="#58a866"/>
    <circle cx="107" cy="328" r="1.4" fill="#ffe9a8"/>
    <circle cx="114" cy="330" r="1.3" fill="#ffd75e"/>
    <circle cx="111" cy="333" r="1.2" fill="#fff3c6"/>
  </g>

  <!-- ============ WISP MOTES / FIREFLIES ============ -->
  <g>
    <circle cx="230" cy="150" r="6" fill="#ffd75e" opacity="0.4" filter="url(#hc-glow)"/>
    <circle cx="230" cy="150" r="2.1" fill="#fff3c6"/>
    <circle cx="120" cy="200" r="5" fill="#ffe9a8" opacity="0.4" filter="url(#hc-glow)"/>
    <circle cx="120" cy="200" r="1.8" fill="#fff6d4"/>
    <circle cx="378" cy="176" r="5.5" fill="#ffd75e" opacity="0.38" filter="url(#hc-glow)"/>
    <circle cx="378" cy="176" r="1.9" fill="#fff3c6"/>
    <circle cx="405" cy="262" r="4.5" fill="#ffe9a8" opacity="0.35" filter="url(#hc-glow)"/>
    <circle cx="405" cy="262" r="1.6" fill="#fff6d4"/>
    <circle cx="70" cy="270" r="4.5" fill="#ffd75e" opacity="0.32" filter="url(#hc-glow)"/>
    <circle cx="70" cy="270" r="1.5" fill="#fff3c6"/>
    <circle cx="262" cy="238" r="3.6" fill="#ffe9a8" opacity="0.5" filter="url(#hc-glowS)"/>
    <circle cx="262" cy="238" r="1.3" fill="#fff6d4"/>
    <circle cx="168" cy="322" r="3.4" fill="#ffd75e" opacity="0.45" filter="url(#hc-glowS)"/>
    <circle cx="168" cy="322" r="1.2" fill="#fff3c6"/>
    <circle cx="283" cy="252" r="3.2" fill="#ffe9a8" opacity="0.42" filter="url(#hc-glowS)"/>
    <circle cx="283" cy="252" r="1.1" fill="#fff6d4"/>
    <circle cx="200" cy="118" r="1.4" fill="#fff3c6" opacity="0.85"/>
    <circle cx="300" cy="132" r="1.2" fill="#ffe9a8" opacity="0.8"/>
  </g>
</svg>
