<svg viewBox="0 0 480 460" xmlns="http://www.w3.org/2000/svg">
  <defs>
    <!-- ===== ambient + rim ===== -->
    <radialGradient id="hillside-burrow-ambient" cx="48%" cy="44%" r="62%">
      <stop offset="0%" stop-color="#ffcf6a" stop-opacity="0.16"/>
      <stop offset="46%" stop-color="#7f8fd1" stop-opacity="0.07"/>
      <stop offset="100%" stop-color="#101418" stop-opacity="0"/>
    </radialGradient>
    <radialGradient id="hillside-burrow-rim" cx="50%" cy="50%" r="50%">
      <stop offset="0%" stop-color="#5d8fa8" stop-opacity="0.32"/>
      <stop offset="100%" stop-color="#5d8fa8" stop-opacity="0"/>
    </radialGradient>

    <!-- ===== ground tile ===== -->
    <radialGradient id="hillside-burrow-groundTop" cx="44%" cy="38%" r="72%">
      <stop offset="0%" stop-color="#63b56d"/>
      <stop offset="55%" stop-color="#4f9d5d"/>
      <stop offset="100%" stop-color="#2e6a3f"/>
    </radialGradient>
    <linearGradient id="hillside-burrow-earth" x1="0" y1="0" x2="0" y2="1">
      <stop offset="0%" stop-color="#6e4a33"/>
      <stop offset="100%" stop-color="#38240f"/>
    </linearGradient>
    <linearGradient id="hillside-burrow-earthDark" x1="0" y1="0" x2="0" y2="1">
      <stop offset="0%" stop-color="#573a28"/>
      <stop offset="100%" stop-color="#2a1a0d"/>
    </linearGradient>

    <!-- ===== grassy mound ===== -->
    <radialGradient id="hillside-burrow-dome" cx="40%" cy="26%" r="82%">
      <stop offset="0%" stop-color="#82cf7d"/>
      <stop offset="40%" stop-color="#5cae66"/>
      <stop offset="72%" stop-color="#43944f"/>
      <stop offset="100%" stop-color="#2b653c"/>
    </radialGradient>
    <linearGradient id="hillside-burrow-domeShade" x1="0" y1="0" x2="1" y2="0.7">
      <stop offset="0%" stop-color="#1f5231" stop-opacity="0"/>
      <stop offset="100%" stop-color="#12351f" stop-opacity="0.55"/>
    </linearGradient>

    <!-- ===== entrance cut face (earthen cross-section) ===== -->
    <linearGradient id="hillside-burrow-cut" x1="0" y1="0" x2="0" y2="1">
      <stop offset="0%" stop-color="#a3714c"/>
      <stop offset="45%" stop-color="#835838"/>
      <stop offset="100%" stop-color="#5a3a24"/>
    </linearGradient>
    <radialGradient id="hillside-burrow-cutVignette" cx="50%" cy="42%" r="62%">
      <stop offset="0%" stop-color="#000000" stop-opacity="0"/>
      <stop offset="72%" stop-color="#000000" stop-opacity="0"/>
      <stop offset="100%" stop-color="#1c0f06" stop-opacity="0.7"/>
    </radialGradient>

    <!-- ===== door ===== -->
    <radialGradient id="hillside-burrow-doorGlow" cx="50%" cy="52%" r="58%">
      <stop offset="0%" stop-color="#ffe9a8" stop-opacity="0.9"/>
      <stop offset="42%" stop-color="#ffd75e" stop-opacity="0.55"/>
      <stop offset="100%" stop-color="#ffd75e" stop-opacity="0"/>
    </radialGradient>
    <radialGradient id="hillside-burrow-stoneRing" cx="42%" cy="34%" r="72%">
      <stop offset="0%" stop-color="#9aa0a6"/>
      <stop offset="60%" stop-color="#767c82"/>
      <stop offset="100%" stop-color="#4f5459"/>
    </radialGradient>
    <radialGradient id="hillside-burrow-door" cx="40%" cy="34%" r="78%">
      <stop offset="0%" stop-color="#3f8f5a"/>
      <stop offset="55%" stop-color="#2f7248"/>
      <stop offset="100%" stop-color="#1d4d30"/>
    </radialGradient>
    <linearGradient id="hillside-burrow-plank" x1="0" y1="0" x2="1" y2="0">
      <stop offset="0%" stop-color="#ffffff" stop-opacity="0.14"/>
      <stop offset="50%" stop-color="#ffffff" stop-opacity="0"/>
      <stop offset="100%" stop-color="#000000" stop-opacity="0.18"/>
    </linearGradient>

    <!-- ===== windows ===== -->
    <radialGradient id="hillside-burrow-winGlow" cx="50%" cy="50%" r="50%">
      <stop offset="0%" stop-color="#ffe9a8" stop-opacity="0.95"/>
      <stop offset="38%" stop-color="#ffd75e" stop-opacity="0.6"/>
      <stop offset="100%" stop-color="#ffd75e" stop-opacity="0"/>
    </radialGradient>
    <radialGradient id="hillside-burrow-pane" cx="50%" cy="42%" r="62%">
      <stop offset="0%" stop-color="#fff6da"/>
      <stop offset="60%" stop-color="#ffdf82"/>
      <stop offset="100%" stop-color="#f2b23f"/>
    </radialGradient>

    <!-- ===== chimney ===== -->
    <linearGradient id="hillside-burrow-chimSun" x1="0" y1="0" x2="0" y2="1">
      <stop offset="0%" stop-color="#9aa0a6"/>
      <stop offset="100%" stop-color="#6a7076"/>
    </linearGradient>
    <linearGradient id="hillside-burrow-chimShade" x1="0" y1="0" x2="0" y2="1">
      <stop offset="0%" stop-color="#5f656b"/>
      <stop offset="100%" stop-color="#41464b"/>
    </linearGradient>

    <!-- ===== wisp mote ===== -->
    <radialGradient id="hillside-burrow-mote" cx="50%" cy="50%" r="50%">
      <stop offset="0%" stop-color="#ffe9a8"/>
      <stop offset="45%" stop-color="#ffd75e" stop-opacity="0.8"/>
      <stop offset="100%" stop-color="#ffd75e" stop-opacity="0"/>
    </radialGradient>

    <filter id="hillside-burrow-soft" x="-60%" y="-60%" width="220%" height="220%">
      <feGaussianBlur stdDeviation="6"/>
    </filter>
    <filter id="hillside-burrow-soft2" x="-80%" y="-80%" width="260%" height="260%">
      <feGaussianBlur stdDeviation="3"/>
    </filter>
    <filter id="hillside-burrow-shadow" x="-50%" y="-50%" width="200%" height="200%">
      <feGaussianBlur stdDeviation="9"/>
    </filter>

    <clipPath id="hillside-burrow-doorclip">
      <circle cx="222" cy="300" r="39"/>
    </clipPath>
  </defs>

  <!-- ambient wash + cool back rim -->
  <rect x="0" y="0" width="480" height="460" fill="url(#hillside-burrow-ambient)"/>
  <ellipse cx="240" cy="188" rx="196" ry="80" fill="url(#hillside-burrow-rim)" filter="url(#hillside-burrow-soft)"/>

  <!-- ground contact shadow -->
  <ellipse cx="242" cy="378" rx="164" ry="46" fill="#050708" opacity="0.55" filter="url(#hillside-burrow-shadow)"/>

  <!-- ===================== GROUND TILE ===================== -->
  <g id="hillside-burrow-ground">
    <!-- earth sides (under-island cross-section) -->
    <polygon points="416,340 240,428 240,456 416,368" fill="url(#hillside-burrow-earthDark)"/>
    <polygon points="64,340 240,428 240,456 64,368" fill="url(#hillside-burrow-earth)"/>
    <!-- strata lines -->
    <g stroke="#2a1a0d" stroke-width="1.3" opacity="0.5" fill="none">
      <path d="M240,436 L412,350 M240,444 L412,358 M240,452 L412,366"/>
      <path d="M240,436 L68,350 M240,444 L68,358 M240,452 L68,366"/>
    </g>
    <g stroke="#8a5a3e" stroke-width="0.8" opacity="0.4" fill="none">
      <path d="M240,432 L410,346 M240,440 L70,346"/>
    </g>
    <!-- embedded pebbles + hanging roots -->
    <ellipse cx="330" cy="384" rx="6" ry="3.4" fill="#7c5a42" opacity="0.7"/>
    <ellipse cx="300" cy="402" rx="4" ry="2.4" fill="#5f4230" opacity="0.7"/>
    <ellipse cx="150" cy="388" rx="5" ry="3" fill="#6a4a34" opacity="0.65"/>
    <ellipse cx="186" cy="406" rx="4" ry="2.4" fill="#7c5a42" opacity="0.6"/>
    <g stroke="#3a2614" stroke-width="1.4" stroke-linecap="round" fill="none" opacity="0.6">
      <path d="M120,352 q1,10 -1,17"/>
      <path d="M360,360 q-1,9 1,15"/>
      <path d="M282,410 q2,8 -1,13"/>
    </g>

    <!-- grass top surface -->
    <polygon points="240,252 416,340 240,428 64,340" fill="url(#hillside-burrow-groundTop)"/>
    <path d="M240,252 L416,340 L240,428 L64,340 Z" fill="none" stroke="#2c6b41" stroke-width="2" opacity="0.5"/>
    <ellipse cx="205" cy="330" rx="48" ry="22" fill="#5cae66" opacity="0.32"/>
    <ellipse cx="308" cy="360" rx="42" ry="18" fill="#3f8a4f" opacity="0.32"/>
    <ellipse cx="150" cy="362" rx="30" ry="14" fill="#3f8a4f" opacity="0.28"/>

    <!-- foreground stones + a toadstool -->
    <ellipse cx="336" cy="392" rx="14" ry="7.5" fill="#767c82"/><ellipse cx="336" cy="389.6" rx="12.4" ry="6.1" fill="#949aa0"/>
    <ellipse cx="96" cy="358" rx="10" ry="5.4" fill="#767c82"/><ellipse cx="96" cy="356" rx="8.6" ry="4.3" fill="#8f959b"/>
    <g>
      <rect x="121" y="374" width="2.6" height="6" rx="1.2" fill="#f0e3cf"/>
      <ellipse cx="122.3" cy="374" rx="5" ry="2.6" fill="#c94f4a"/>
      <path d="M117.3,374 a5,5 0 0 1 10,0 Z" fill="#d65c56"/>
      <circle cx="120" cy="372.4" r="0.9" fill="#ffe4d8"/>
      <circle cx="124" cy="373.2" r="0.7" fill="#ffe4d8"/>
    </g>

    <!-- blades of grass along the near rims -->
    <g stroke="#68c072" stroke-width="1.6" stroke-linecap="round" fill="none" opacity="0.9">
      <path d="M94,354 q-2,-6 -1,-10"/><path d="M99,356 q1,-6 3,-11"/>
      <path d="M330,404 q-2,-7 -1,-11"/><path d="M338,402 q2,-6 4,-10"/>
      <path d="M254,410 q-2,-7 -1,-12"/><path d="M262,408 q2,-7 4,-11"/>
      <path d="M356,354 q-2,-7 -1,-11"/><path d="M120,346 q-2,-6 -1,-10"/>
    </g>
  </g>

  <!-- soft shadow the mound casts onto the tile, along its contact line -->
  <path d="M104,327 C118,358 182,382 240,384 C298,382 362,358 376,327"
        fill="none" stroke="#0a1f12" stroke-width="10" opacity="0.4" filter="url(#hillside-burrow-soft2)"/>

  <!-- ===================== GRASSY MOUND ===================== -->
  <g id="hillside-burrow-mound">
    <!-- dome silhouette (base kept inside the tile's top face) -->
    <path d="M104,327
             C96,252 118,176 176,152
             C210,138 272,138 306,152
             C364,176 384,252 376,327
             C362,358 298,382 240,384
             C182,382 118,358 104,327 Z"
          fill="url(#hillside-burrow-dome)"/>

    <!-- form shading: shadow flank (right) + front ambient occlusion -->
    <path d="M240,138 C300,138 362,178 376,327 C362,358 298,382 240,384 Z"
          fill="url(#hillside-burrow-domeShade)" opacity="0.7"/>
    <path d="M104,327 C118,358 182,382 240,384 C298,382 362,358 376,327
             C362,347 298,366 240,368 C182,366 118,347 104,327 Z"
          fill="#123a22" opacity="0.4"/>
    <!-- top highlight -->
    <ellipse cx="196" cy="188" rx="70" ry="46" fill="#8fdd88" opacity="0.34" filter="url(#hillside-burrow-soft2)"/>
    <!-- cool back rim along top-left silhouette -->
    <path d="M104,327 C96,252 118,176 176,152 C210,138 240,138 244,140"
          fill="none" stroke="#9fdcc4" stroke-width="2.4" opacity="0.4" filter="url(#hillside-burrow-soft2)"/>

    <!-- rolling turf contour bands -->
    <g fill="none" stroke="#2c6b40" stroke-width="1.5" opacity="0.34">
      <path d="M108,296 Q200,262 300,282 Q352,294 373,311"/>
      <path d="M118,246 Q210,214 300,232 Q346,244 366,266"/>
      <path d="M150,196 Q220,172 296,190"/>
    </g>
    <g fill="none" stroke="#84d47e" stroke-width="1" opacity="0.4">
      <path d="M108,293 Q200,259 300,279 Q352,291 373,308"/>
      <path d="M118,243 Q210,211 300,229 Q346,241 366,263"/>
      <path d="M150,193 Q220,169 296,187"/>
    </g>

    <!-- scattered grass tufts over the mound -->
    <g stroke="#7cd077" stroke-width="1.5" stroke-linecap="round" fill="none" opacity="0.9">
      <path d="M150,238 q-3,-9 -1,-15 M150,238 q2,-9 4,-14"/>
      <path d="M186,214 q-3,-9 -1,-14 M186,214 q2,-9 4,-14"/>
      <path d="M228,196 q-3,-9 -1,-14 M228,196 q2,-8 4,-13"/>
      <path d="M272,192 q-3,-9 -1,-14 M272,192 q2,-8 4,-13"/>
      <path d="M312,208 q-3,-9 -1,-14 M312,208 q2,-8 4,-13"/>
      <path d="M344,238 q-3,-8 -1,-13 M344,238 q2,-8 4,-12"/>
      <path d="M126,278 q-3,-8 -1,-13 M126,278 q2,-8 4,-12"/>
      <path d="M170,264 q-3,-8 -1,-13 M170,264 q2,-8 4,-12"/>
      <path d="M356,288 q-3,-8 -1,-12 M356,288 q2,-8 4,-11"/>
      <path d="M110,308 q-3,-8 -1,-12 M110,308 q2,-7 4,-11"/>
      <path d="M300,254 q-2,-8 -1,-12 M300,254 q2,-7 3,-11"/>
      <path d="M204,164 q-2,-7 -1,-11 M204,164 q2,-7 3,-11"/>
      <path d="M256,158 q-2,-7 -1,-11 M256,158 q2,-7 3,-11"/>
    </g>

    <!-- wildflowers dotted across the turf -->
    <g>
      <circle cx="168" cy="216" r="1.9" fill="#ffe9a8"/><circle cx="168" cy="216" r="0.7" fill="#ffb347"/>
      <circle cx="214" cy="182" r="1.9" fill="#f6d2e2"/><circle cx="214" cy="182" r="0.7" fill="#ffe9a8"/>
      <circle cx="286" cy="176" r="1.8" fill="#cfe6ff"/><circle cx="286" cy="176" r="0.6" fill="#ffe9a8"/>
      <circle cx="324" cy="220" r="1.8" fill="#ffe9a8"/><circle cx="324" cy="220" r="0.6" fill="#ffb347"/>
      <circle cx="134" cy="250" r="1.8" fill="#f6d2e2"/><circle cx="134" cy="250" r="0.7" fill="#ffe9a8"/>
      <circle cx="352" cy="264" r="1.7" fill="#cfe6ff"/><circle cx="352" cy="264" r="0.6" fill="#ffe9a8"/>
      <circle cx="250" cy="168" r="1.7" fill="#ffe9a8"/><circle cx="250" cy="168" r="0.6" fill="#ffb347"/>
      <circle cx="112" cy="298" r="1.7" fill="#ffe9a8"/><circle cx="112" cy="298" r="0.6" fill="#ffb347"/>
      <circle cx="192" cy="200" r="1.6" fill="#f6d2e2"/><circle cx="192" cy="200" r="0.6" fill="#ffe9a8"/>
    </g>

    <!-- ============ ENTRANCE CUT FACE (dug into the hill) ============ -->
    <g id="hillside-burrow-entrance">
      <!-- earthen cross-section panel -->
      <path d="M148,342 L148,300 C148,232 296,232 296,300 L296,342 Z"
            fill="url(#hillside-burrow-cut)"/>
      <!-- packed-earth strata within the cut -->
      <g stroke="#6a462c" stroke-width="1.2" opacity="0.5" fill="none">
        <path d="M150,318 Q222,308 294,318"/>
        <path d="M150,330 Q222,322 294,330"/>
        <path d="M154,300 Q222,290 290,300"/>
      </g>
      <g stroke="#b98a5e" stroke-width="0.8" opacity="0.4" fill="none">
        <path d="M150,316 Q222,306 294,316"/>
        <path d="M154,298 Q222,288 290,298"/>
      </g>
      <!-- little exposed roots at the top rim of the cut -->
      <g stroke="#4a3018" stroke-width="1.5" stroke-linecap="round" fill="none" opacity="0.7">
        <path d="M172,244 q-3,8 1,14"/>
        <path d="M204,238 q2,8 -2,15"/>
        <path d="M266,240 q3,8 -1,15"/>
        <path d="M240,236 q-2,9 2,16"/>
      </g>
      <!-- soft grass fringe hanging over the cut -->
      <g stroke="#4f9d5d" stroke-width="1.7" stroke-linecap="round" fill="none" opacity="0.85">
        <path d="M158,268 q-1,7 -3,11"/><path d="M182,250 q0,7 -2,11"/>
        <path d="M212,240 q1,7 -1,11"/><path d="M244,238 q0,7 -2,11"/>
        <path d="M276,244 q1,7 -1,11"/><path d="M300,262 q1,7 -1,11"/>
      </g>
      <!-- vignette to recess the pocket -->
      <path d="M148,342 L148,300 C148,232 296,232 296,300 L296,342 Z"
            fill="url(#hillside-burrow-cutVignette)"/>

      <!-- ===== ROUND DOOR (the star) ===== -->
      <g id="hillside-burrow-door">
        <ellipse cx="222" cy="304" rx="62" ry="52" fill="url(#hillside-burrow-doorGlow)" filter="url(#hillside-burrow-soft)"/>
        <!-- stone frame ring -->
        <circle cx="222" cy="300" r="45" fill="url(#hillside-burrow-stoneRing)"/>
        <circle cx="222" cy="300" r="45" fill="none" stroke="#3f4449" stroke-width="1.4" opacity="0.7"/>
        <!-- ring stone segments -->
        <g stroke="#41464b" stroke-width="1.2" opacity="0.55">
          <line x1="222" y1="255" x2="222" y2="266"/>
          <line x1="258" y1="272" x2="250" y2="279"/>
          <line x1="267" y1="300" x2="256" y2="300"/>
          <line x1="258" y1="328" x2="250" y2="321"/>
          <line x1="186" y1="328" x2="194" y2="321"/>
          <line x1="177" y1="300" x2="188" y2="300"/>
          <line x1="186" y1="272" x2="194" y2="279"/>
        </g>
        <!-- ring rim light -->
        <path d="M222,255 A45,45 0 0 1 264,278" fill="none" stroke="#c4cace" stroke-width="2" opacity="0.6" stroke-linecap="round"/>

        <!-- door leaf -->
        <circle cx="222" cy="300" r="39" fill="url(#hillside-burrow-door)"/>
        <!-- vertical planks (clipped to circle) -->
        <g clip-path="url(#hillside-burrow-doorclip)">
          <rect x="184" y="261" width="76" height="78" fill="url(#hillside-burrow-plank)"/>
          <g stroke="#164028" stroke-width="1.4" opacity="0.75">
            <line x1="200" y1="262" x2="200" y2="339"/>
            <line x1="212" y1="262" x2="212" y2="339"/>
            <line x1="234" y1="262" x2="234" y2="339"/>
            <line x1="246" y1="262" x2="246" y2="339"/>
          </g>
          <g stroke="#4f9d5d" stroke-width="0.7" opacity="0.5">
            <line x1="201.2" y1="262" x2="201.2" y2="339"/>
            <line x1="213.2" y1="262" x2="213.2" y2="339"/>
            <line x1="235.2" y1="262" x2="235.2" y2="339"/>
            <line x1="247.2" y1="262" x2="247.2" y2="339"/>
          </g>
          <!-- cross braces -->
          <path d="M186,286 L258,278 M186,318 L258,326" stroke="#1a4a2e" stroke-width="2.2" opacity="0.6"/>
          <!-- inner shading -->
          <ellipse cx="222" cy="330" rx="42" ry="24" fill="#123320" opacity="0.35"/>
          <ellipse cx="206" cy="280" rx="26" ry="20" fill="#5fb56b" opacity="0.4"/>
        </g>
        <!-- door edge shadow + rim light -->
        <circle cx="222" cy="300" r="39" fill="none" stroke="#123320" stroke-width="1.6" opacity="0.5"/>
        <path d="M222,261 A39,39 0 0 0 187,318" fill="none" stroke="#8fe089" stroke-width="1.6" opacity="0.55" stroke-linecap="round"/>
        <!-- warm light leaking from the seam at the base -->
        <path d="M188,314 A39,39 0 0 0 256,314" fill="none" stroke="#ffd75e" stroke-width="2.6" opacity="0.5" filter="url(#hillside-burrow-soft2)"/>

        <!-- brass centre knob (hobbit-style) with glow -->
        <circle cx="222" cy="300" r="6.4" fill="#ffe9a8" opacity="0.7" filter="url(#hillside-burrow-soft2)"/>
        <circle cx="222" cy="300" r="4.2" fill="#e7b24a"/>
        <circle cx="222" cy="300" r="4.2" fill="none" stroke="#8a5a20" stroke-width="0.8"/>
        <circle cx="220.6" cy="298.6" r="1.3" fill="#fff2c8"/>
      </g>

      <!-- stone threshold / doorstep (in front of the door so the ring rests behind it) -->
      <g>
        <ellipse cx="200" cy="340" rx="12" ry="4.6" fill="#6a7076"/><ellipse cx="200" cy="338.6" rx="10.4" ry="3.6" fill="#8b9197"/>
        <ellipse cx="224" cy="343" rx="13" ry="5" fill="#5f656b"/><ellipse cx="224" cy="341.4" rx="11.2" ry="3.9" fill="#828890"/>
        <ellipse cx="250" cy="340" rx="12" ry="4.6" fill="#6a7076"/><ellipse cx="250" cy="338.6" rx="10.4" ry="3.6" fill="#8b9197"/>
        <!-- warm spill from the door onto the step -->
        <ellipse cx="224" cy="340.5" rx="30" ry="8" fill="url(#hillside-burrow-doorGlow)" opacity="0.55"/>
      </g>

      <!-- ===== PORTHOLE WINDOWS set in the turf ===== -->
      <g id="hillside-burrow-portholes">
        <!-- left porthole -->
        <circle cx="127" cy="270" r="24" fill="url(#hillside-burrow-winGlow)" filter="url(#hillside-burrow-soft)"/>
        <circle cx="127" cy="270" r="15.5" fill="url(#hillside-burrow-stoneRing)"/>
        <circle cx="127" cy="270" r="11.5" fill="url(#hillside-burrow-pane)"/>
        <g stroke="#6a4227" stroke-width="1.5" opacity="0.85">
          <line x1="115.5" y1="270" x2="138.5" y2="270"/>
          <line x1="127" y1="258.5" x2="127" y2="281.5"/>
        </g>
        <path d="M127,258.5 A11.5,11.5 0 0 0 115.5,270" fill="#fff6da" opacity="0.5"/>
        <circle cx="127" cy="270" r="15.5" fill="none" stroke="#41464b" stroke-width="1.2" opacity="0.6"/>

        <!-- right porthole -->
        <circle cx="326" cy="262" r="24" fill="url(#hillside-burrow-winGlow)" filter="url(#hillside-burrow-soft)"/>
        <circle cx="326" cy="262" r="15.5" fill="url(#hillside-burrow-stoneRing)"/>
        <circle cx="326" cy="262" r="11.5" fill="url(#hillside-burrow-pane)"/>
        <g stroke="#6a4227" stroke-width="1.5" opacity="0.85">
          <line x1="314.5" y1="262" x2="337.5" y2="262"/>
          <line x1="326" y1="250.5" x2="326" y2="273.5"/>
        </g>
        <path d="M326,250.5 A11.5,11.5 0 0 0 314.5,262" fill="#fff6da" opacity="0.5"/>
        <circle cx="326" cy="262" r="15.5" fill="none" stroke="#41464b" stroke-width="1.2" opacity="0.6"/>

        <!-- little top porthole -->
        <circle cx="244" cy="206" r="16" fill="url(#hillside-burrow-winGlow)" filter="url(#hillside-burrow-soft)"/>
        <circle cx="244" cy="206" r="9.5" fill="url(#hillside-burrow-stoneRing)"/>
        <circle cx="244" cy="206" r="6.6" fill="url(#hillside-burrow-pane)"/>
        <line x1="237.4" y1="206" x2="250.6" y2="206" stroke="#6a4227" stroke-width="1.2" opacity="0.8"/>
        <line x1="244" y1="199.4" x2="244" y2="212.6" stroke="#6a4227" stroke-width="1.2" opacity="0.8"/>
        <circle cx="244" cy="206" r="9.5" fill="none" stroke="#41464b" stroke-width="1" opacity="0.6"/>
      </g>
    </g>

    <!-- ============ STONE CHIMNEY poking from the turf ============ -->
    <g id="hillside-burrow-chimney">
      <ellipse cx="300" cy="200" rx="20" ry="7" fill="#0c2013" opacity="0.4" filter="url(#hillside-burrow-soft2)"/>
      <!-- body: two faces -->
      <polygon points="290,196 300,201 300,158 290,155" fill="url(#hillside-burrow-chimShade)"/>
      <polygon points="300,201 314,194 314,152 300,158" fill="url(#hillside-burrow-chimSun)"/>
      <!-- stone courses (iso 0.5 slopes) -->
      <g stroke="#3c4247" stroke-width="0.9" opacity="0.55">
        <line x1="290" y1="167" x2="300" y2="172"/><line x1="300" y1="172" x2="314" y2="165"/>
        <line x1="290" y1="180" x2="300" y2="185"/><line x1="300" y1="185" x2="314" y2="178"/>
      </g>
      <!-- cap (true iso parallelogram) + dark flue -->
      <polygon points="286,153 300,160 316,152 302,145" fill="#828890"/>
      <polygon points="286,153 300,160 316,152 302,145" fill="none" stroke="#4f5459" stroke-width="0.8"/>
      <line x1="300" y1="159" x2="315" y2="151.5" stroke="#aeb4b9" stroke-width="0.7" opacity="0.5"/>
      <ellipse cx="301" cy="152.5" rx="5.4" ry="2.4" fill="#161a1e"/>
      <!-- warm ember glow at the flue lip -->
      <ellipse cx="301" cy="152.5" rx="3" ry="1.3" fill="#ffb347" opacity="0.6"/>
      <!-- turf collar hugging the base: the roof join reads seamless -->
      <g>
        <ellipse cx="294" cy="197.5" rx="6.5" ry="2.8" fill="#3a7f46"/>
        <ellipse cx="300" cy="200" rx="6" ry="2.6" fill="#418a4b"/>
        <ellipse cx="308" cy="197.5" rx="7.5" ry="3" fill="#357541"/>
        <g stroke="#74ca74" stroke-width="1.4" stroke-linecap="round" fill="none" opacity="0.9">
          <path d="M290,195 q-2,-5 -1,-9"/>
          <path d="M296,199 q-1,-6 1,-9"/>
          <path d="M305,200 q1,-5 3,-8"/>
          <path d="M312,195 q2,-4 3,-8"/>
        </g>
      </g>
    </g>
    <!-- smoke rising -->
    <g opacity="0.5" filter="url(#hillside-burrow-soft2)">
      <path d="M301,150 q-8,-14 2,-24 q9,-9 1,-22 q-6,-10 4,-20"
            fill="none" stroke="#c9d3da" stroke-width="5" stroke-linecap="round" opacity="0.4"/>
    </g>
  </g>

  <!-- ===================== STEPPING-STONE PATH (over the mound skirt, down to the tile) ===================== -->
  <g id="hillside-burrow-path">
    <!-- tufts where the mound meets the tile -->
    <g stroke="#68c072" stroke-width="1.5" stroke-linecap="round" fill="none" opacity="0.85">
      <path d="M132,352 q-2,-6 -1,-10"/>
      <path d="M162,368 q-2,-6 -1,-10"/>
      <path d="M318,368 q2,-6 3,-10"/>
      <path d="M352,352 q2,-6 3,-10"/>
    </g>
    <!-- contact shadows so the steps sit into the slope -->
    <ellipse cx="224" cy="352.5" rx="11" ry="5.6" fill="#0a1f12" opacity="0.4"/>
    <ellipse cx="228" cy="368.5" rx="12.5" ry="6.4" fill="#0a1f12" opacity="0.4"/>
    <ellipse cx="234" cy="386.5" rx="14" ry="7.2" fill="#0a1f12" opacity="0.32"/>
    <ellipse cx="240" cy="406.5" rx="15.5" ry="8" fill="#081209" opacity="0.3"/>
    <!-- the steps, far to near -->
    <ellipse cx="224" cy="350" rx="9.6" ry="5" fill="#6a7076"/><ellipse cx="224" cy="348.6" rx="8.2" ry="4" fill="#868c92"/>
    <ellipse cx="228" cy="366" rx="11" ry="5.8" fill="#6e747a"/><ellipse cx="228" cy="364.4" rx="9.6" ry="4.7" fill="#8b9197"/>
    <ellipse cx="234" cy="384" rx="12.5" ry="6.6" fill="#767c82"/><ellipse cx="234" cy="382" rx="11" ry="5.4" fill="#949aa0"/>
    <ellipse cx="240" cy="404" rx="14" ry="7.4" fill="#7d8388"/><ellipse cx="240" cy="401.8" rx="12.4" ry="6.1" fill="#9ba1a6"/>
    <!-- warm pools from the door glow on the upper steps -->
    <ellipse cx="224" cy="349" rx="8" ry="4" fill="#ffd75e" opacity="0.28"/>
    <ellipse cx="228" cy="364.5" rx="9" ry="4.4" fill="#ffd75e" opacity="0.16"/>
  </g>

  <!-- ===================== MAGICAL WISP MOTES ===================== -->
  <g id="hillside-burrow-wisps">
    <circle cx="112" cy="168" r="10" fill="url(#hillside-burrow-mote)"/><circle cx="112" cy="168" r="2.2" fill="#fff4cf"/>
    <circle cx="366" cy="152" r="11" fill="url(#hillside-burrow-mote)"/><circle cx="366" cy="152" r="2.4" fill="#fff4cf"/>
    <circle cx="414" cy="240" r="8" fill="url(#hillside-burrow-mote)"/><circle cx="414" cy="240" r="1.9" fill="#fff4cf"/>
    <circle cx="72" cy="292" r="7" fill="url(#hillside-burrow-mote)"/><circle cx="72" cy="292" r="1.7" fill="#fff4cf"/>
    <circle cx="286" cy="112" r="6" fill="url(#hillside-burrow-mote)"/><circle cx="286" cy="112" r="1.6" fill="#fff4cf"/>
    <circle cx="180" cy="126" r="6" fill="url(#hillside-burrow-mote)"/><circle cx="180" cy="126" r="1.5" fill="#fff4cf"/>
    <circle cx="430" cy="312" r="6.5" fill="url(#hillside-burrow-mote)"/><circle cx="430" cy="312" r="1.6" fill="#fff4cf"/>
    <circle cx="238" cy="108" r="4.5" fill="url(#hillside-burrow-mote)"/>
    <circle cx="56" cy="238" r="5" fill="url(#hillside-burrow-mote)"/>
    <!-- fireflies drifting from the door glow -->
    <circle cx="266" cy="344" r="4.2" fill="url(#hillside-burrow-mote)"/><circle cx="266" cy="344" r="1.2" fill="#fff4cf"/>
    <circle cx="176" cy="332" r="3.6" fill="url(#hillside-burrow-mote)"/><circle cx="176" cy="332" r="1" fill="#fff4cf"/>
    <circle cx="300" cy="300" r="3.4" fill="url(#hillside-burrow-mote)"/>
  </g>
</svg>
