<svg viewBox="0 0 480 460" xmlns="http://www.w3.org/2000/svg">
  <defs>
    <radialGradient id="tgh-grass" cx="46%" cy="28%" r="82%">
      <stop offset="0%" stop-color="#69b874"/>
      <stop offset="52%" stop-color="#4f9d5d"/>
      <stop offset="100%" stop-color="#2c6b3c"/>
    </radialGradient>
    <linearGradient id="tgh-earthL" x1="0" y1="0" x2="0" y2="1">
      <stop offset="0%" stop-color="#8a5a44"/>
      <stop offset="100%" stop-color="#4c3021"/>
    </linearGradient>
    <linearGradient id="tgh-earthR" x1="0" y1="0" x2="0" y2="1">
      <stop offset="0%" stop-color="#6c4531"/>
      <stop offset="100%" stop-color="#391f14"/>
    </linearGradient>
    <linearGradient id="tgh-trail" x1="0" y1="0" x2="0" y2="1">
      <stop offset="0%" stop-color="#a8886a"/>
      <stop offset="100%" stop-color="#6f4c34"/>
    </linearGradient>
    <linearGradient id="tgh-stoneF" x1="0" y1="0" x2="0.35" y2="1">
      <stop offset="0%" stop-color="#c3b7a0"/>
      <stop offset="55%" stop-color="#a3927a"/>
      <stop offset="100%" stop-color="#7c6b54"/>
    </linearGradient>
    <linearGradient id="tgh-stoneS" x1="0" y1="0" x2="0.3" y2="1">
      <stop offset="0%" stop-color="#8a7962"/>
      <stop offset="55%" stop-color="#6a5a45"/>
      <stop offset="100%" stop-color="#4a3d2e"/>
    </linearGradient>
    <linearGradient id="trailgatehouse-pierside" x1="0" y1="0" x2="0" y2="1">
      <stop offset="0%" stop-color="#4a3e2c"/>
      <stop offset="100%" stop-color="#292115"/>
    </linearGradient>
    <linearGradient id="tgh-arch" x1="0" y1="0" x2="0" y2="1">
      <stop offset="0%" stop-color="#cabfa8"/>
      <stop offset="100%" stop-color="#8b7a61"/>
    </linearGradient>
    <radialGradient id="tgh-tunnel" cx="50%" cy="34%" r="72%">
      <stop offset="0%" stop-color="#5a4326"/>
      <stop offset="34%" stop-color="#2c2016"/>
      <stop offset="100%" stop-color="#0b0a08"/>
    </radialGradient>
    <radialGradient id="tgh-farlight" cx="50%" cy="60%" r="65%">
      <stop offset="0%" stop-color="#a6e3ab"/>
      <stop offset="55%" stop-color="#5aa866"/>
      <stop offset="100%" stop-color="#2f6b3d"/>
    </radialGradient>
    <linearGradient id="tgh-jetty" x1="0" y1="0" x2="0" y2="1">
      <stop offset="0%" stop-color="#7a5636"/>
      <stop offset="100%" stop-color="#4a3018"/>
    </linearGradient>
    <linearGradient id="tgh-wallF" x1="0" y1="0" x2="0.35" y2="1">
      <stop offset="0%" stop-color="#f4ead1"/>
      <stop offset="60%" stop-color="#e6d6b4"/>
      <stop offset="100%" stop-color="#cbb78e"/>
    </linearGradient>
    <linearGradient id="tgh-wallS" x1="0" y1="0" x2="0.3" y2="1">
      <stop offset="0%" stop-color="#c1ab80"/>
      <stop offset="100%" stop-color="#87714d"/>
    </linearGradient>
    <linearGradient id="tgh-roofF" x1="0.1" y1="0" x2="0.5" y2="1">
      <stop offset="0%" stop-color="#7fb0c6"/>
      <stop offset="45%" stop-color="#5d8fa8"/>
      <stop offset="100%" stop-color="#3c6076"/>
    </linearGradient>
    <linearGradient id="tgh-roofS" x1="0.6" y1="0" x2="0.3" y2="1">
      <stop offset="0%" stop-color="#4f7d94"/>
      <stop offset="100%" stop-color="#284a5c"/>
    </linearGradient>
    <radialGradient id="tgh-win" cx="42%" cy="36%" r="72%">
      <stop offset="0%" stop-color="#fff7db"/>
      <stop offset="46%" stop-color="#ffe089"/>
      <stop offset="100%" stop-color="#d3922f"/>
    </radialGradient>
    <radialGradient id="tgh-winglow" cx="50%" cy="50%" r="50%">
      <stop offset="0%" stop-color="#ffe9a8" stop-opacity="0.9"/>
      <stop offset="100%" stop-color="#ffd75e" stop-opacity="0"/>
    </radialGradient>
    <radialGradient id="tgh-lantern" cx="50%" cy="42%" r="60%">
      <stop offset="0%" stop-color="#fffbe6"/>
      <stop offset="40%" stop-color="#ffe089"/>
      <stop offset="100%" stop-color="#e79a2c"/>
    </radialGradient>
    <radialGradient id="tgh-lanternglow" cx="50%" cy="50%" r="50%">
      <stop offset="0%" stop-color="#ffefb0" stop-opacity="0.95"/>
      <stop offset="45%" stop-color="#ffd75e" stop-opacity="0.5"/>
      <stop offset="100%" stop-color="#ffd75e" stop-opacity="0"/>
    </radialGradient>
    <radialGradient id="tgh-wisp" cx="50%" cy="50%" r="50%">
      <stop offset="0%" stop-color="#fff6d8"/>
      <stop offset="40%" stop-color="#ffd75e"/>
      <stop offset="100%" stop-color="#ffd75e" stop-opacity="0"/>
    </radialGradient>
    <radialGradient id="tgh-smoke" cx="50%" cy="50%" r="50%">
      <stop offset="0%" stop-color="#d6d2e0" stop-opacity="0.8"/>
      <stop offset="100%" stop-color="#d6d2e0" stop-opacity="0"/>
    </radialGradient>
    <filter id="tgh-shadow" x="-40%" y="-40%" width="180%" height="180%"><feGaussianBlur stdDeviation="8"/></filter>
    <filter id="tgh-soft" x="-30%" y="-30%" width="160%" height="160%"><feGaussianBlur stdDeviation="2"/></filter>
    <filter id="tgh-glow" x="-90%" y="-90%" width="280%" height="280%"><feGaussianBlur stdDeviation="3.6"/></filter>
    <filter id="tgh-bigglow" x="-120%" y="-120%" width="340%" height="340%"><feGaussianBlur stdDeviation="7"/></filter>
    <filter id="tgh-smokeblur" x="-60%" y="-60%" width="220%" height="220%"><feGaussianBlur stdDeviation="4.5"/></filter>
  </defs>

  <!-- ground contact shadow -->
  <ellipse cx="240" cy="430" rx="176" ry="46" fill="#05070a" opacity="0.6" filter="url(#tgh-shadow)"/>

  <!-- ===== isometric ground tile ===== -->
  <polygon points="64,376 240,464 240,502 64,414" fill="url(#tgh-earthL)"/>
  <polygon points="240,464 416,376 416,414 240,502" fill="url(#tgh-earthR)"/>
  <path d="M64,395 L240,483 L416,395" fill="none" stroke="#341f13" stroke-width="1.4" opacity="0.5"/>
  <ellipse cx="132" cy="452" rx="7" ry="4" fill="#6e5340" opacity="0.7"/>
  <ellipse cx="196" cy="480" rx="6" ry="3.5" fill="#7a5c46" opacity="0.7"/>
  <ellipse cx="330" cy="450" rx="6.5" ry="3.5" fill="#452f21" opacity="0.7"/>
  <ellipse cx="300" cy="470" rx="5" ry="3" fill="#5c4231" opacity="0.6"/>
  <!-- grass top face -->
  <polygon points="240,288 416,376 240,464 64,376" fill="url(#tgh-grass)"/>
  <polygon points="240,288 416,376 240,464 64,376" fill="none" stroke="#8fd699" stroke-width="1.4" opacity="0.38"/>

  <!-- ===== the trail running through the gate ===== -->
  <!-- front stretch of trail (clipped to the tile: ends in a V at the grass corner) -->
  <polygon points="200,392 280,392 288,440 240,464 192,440" fill="url(#tgh-trail)"/>
  <path d="M200,392 L192,440 M280,392 L288,440" stroke="#5a3d29" stroke-width="1.4" opacity="0.5"/>
  <!-- lip of the trail where it meets the tile edge -->
  <path d="M192,440 L240,464 L288,440" fill="none" stroke="#c9a87c" stroke-width="1.4" opacity="0.5"/>
  <!-- worn light center of trail -->
  <polygon points="222,394 258,394 265,431 240,457 215,431" fill="#b89575" opacity="0.35"/>
  <!-- cobbles on the front trail -->
  <g>
    <ellipse cx="224" cy="438" rx="12" ry="6" fill="#8f8a7d"/><ellipse cx="224" cy="436" rx="12" ry="6" fill="#b6b2a5"/>
    <ellipse cx="250" cy="442" rx="12" ry="6" fill="#8a857a"/><ellipse cx="250" cy="440" rx="12" ry="6" fill="#ada99d"/>
    <ellipse cx="206" cy="428" rx="10" ry="5" fill="#928d81"/><ellipse cx="206" cy="426" rx="10" ry="5" fill="#bab6a9"/>
    <ellipse cx="236" cy="430" rx="11" ry="5.5" fill="#847f74"/><ellipse cx="236" cy="428" rx="11" ry="5.5" fill="#ada99c"/>
    <ellipse cx="266" cy="428" rx="10" ry="5" fill="#8d887c"/><ellipse cx="266" cy="426" rx="10" ry="5" fill="#b3afa2"/>
    <ellipse cx="228" cy="412" rx="9" ry="4.5" fill="#8a857a"/><ellipse cx="228" cy="410.5" rx="9" ry="4.5" fill="#b2aea1"/>
    <ellipse cx="254" cy="412" rx="9" ry="4.5" fill="#847f74"/><ellipse cx="254" cy="410.5" rx="9" ry="4.5" fill="#aca897"/>
    <ellipse cx="241" cy="400" rx="8" ry="4" fill="#8c877b"/><ellipse cx="241" cy="398.5" rx="8" ry="4" fill="#b0ac9f"/>
  </g>

  <!-- ===== tunnel through the gatehouse ===== -->
  <!-- dark cavity -->
  <path d="M200,270 Q200,244 240,244 Q280,244 280,270 L280,392 L200,392 Z" fill="url(#tgh-tunnel)"/>
  <!-- receding inner floor -->
  <polygon points="200,392 280,392 258,346 222,346" fill="#3a2a1a"/>
  <polygon points="208,392 272,392 254,350 226,350" fill="#4a3421" opacity="0.7"/>
  <!-- inner side-wall shading -->
  <polygon points="200,270 216,262 216,368 200,384" fill="#1c150d" opacity="0.75"/>
  <polygon points="280,270 264,262 264,368 280,384" fill="#0f0b07" opacity="0.8"/>
  <!-- far lit opening (a sunlit clearing beyond) -->
  <path d="M224,352 L224,326 Q224,312 240,312 Q256,312 256,326 L256,352 Z" fill="url(#tgh-farlight)"/>
  <path d="M224,352 L224,326 Q224,312 240,312 Q256,312 256,326 L256,352 Z" fill="none" stroke="#2c5f38" stroke-width="1" opacity="0.6"/>
  <!-- green spill from the far opening onto the tunnel floor (soft light pool) -->
  <ellipse cx="240" cy="360" rx="18" ry="7" fill="#7fd08a" opacity="0.16" filter="url(#tgh-soft)"/>
  <!-- warm spill from the lantern onto the tunnel roof -->
  <ellipse cx="240" cy="262" rx="34" ry="20" fill="#ffcf6a" opacity="0.28" filter="url(#tgh-soft)"/>

  <!-- ===== stone piers (the gate legs) ===== -->
  <!-- contact shadows at pier bases -->
  <ellipse cx="168" cy="392" rx="44" ry="12" fill="#0a0d10" opacity="0.4" filter="url(#tgh-soft)"/>
  <ellipse cx="316" cy="392" rx="52" ry="12" fill="#0a0d10" opacity="0.45" filter="url(#tgh-soft)"/>
  <!-- left pier front face (lit) -->
  <polygon points="132,252 200,252 200,392 132,388" fill="url(#tgh-stoneF)"/>
  <!-- left pier battered base -->
  <polygon points="126,392 206,392 200,376 132,376" fill="#6b5b45"/>
  <!-- right pier front face (shaded) -->
  <polygon points="280,252 348,252 348,392 280,392" fill="url(#tgh-stoneS)"/>
  <!-- right pier side face (receding up-right, matches jetty/wall depth axis) -->
  <polygon points="348,252 362,242 362,382 348,392" fill="url(#trailgatehouse-pierside)"/>
  <polygon points="274,392 354,392 348,376 280,376" fill="#3e3324"/>
  <!-- stone coursing, left pier -->
  <g stroke="#8a7960" stroke-width="1.2" opacity="0.55">
    <line x1="132" y1="276" x2="200" y2="276"/><line x1="132" y1="300" x2="200" y2="300"/>
    <line x1="132" y1="324" x2="200" y2="324"/><line x1="132" y1="348" x2="200" y2="348"/>
    <line x1="132" y1="372" x2="200" y2="372"/>
  </g>
  <g stroke="#5c4d3a" stroke-width="1" opacity="0.5">
    <line x1="166" y1="252" x2="166" y2="276"/><line x1="150" y1="276" x2="150" y2="300"/>
    <line x1="182" y1="300" x2="182" y2="324"/><line x1="160" y1="324" x2="160" y2="348"/>
    <line x1="178" y1="348" x2="178" y2="372"/><line x1="152" y1="372" x2="152" y2="392"/>
  </g>
  <!-- stone coursing, right pier -->
  <g stroke="#5a4c39" stroke-width="1.2" opacity="0.55">
    <line x1="280" y1="276" x2="348" y2="276"/><line x1="280" y1="300" x2="348" y2="300"/>
    <line x1="280" y1="324" x2="348" y2="324"/><line x1="280" y1="348" x2="348" y2="348"/>
    <line x1="280" y1="372" x2="348" y2="372"/>
  </g>
  <g stroke="#372c20" stroke-width="1" opacity="0.5">
    <line x1="314" y1="252" x2="314" y2="276"/><line x1="298" y1="276" x2="298" y2="300"/>
    <line x1="330" y1="300" x2="330" y2="324"/><line x1="300" y1="324" x2="300" y2="348"/>
    <line x1="326" y1="348" x2="326" y2="372"/><line x1="304" y1="372" x2="304" y2="392"/>
  </g>
  <!-- left pier outer rim light -->
  <line x1="132" y1="252" x2="132" y2="388" stroke="#fff4d6" stroke-width="1.4" opacity="0.45"/>
  <!-- ambient occlusion on inner pier edges (toward arch) -->
  <polygon points="200,252 200,392 194,392 194,258" fill="#2a2015" opacity="0.4"/>
  <polygon points="280,252 280,392 286,392 286,258" fill="#1c150d" opacity="0.4"/>

  <!-- ===== the archway ===== -->
  <!-- arch ring (voussoirs) -->
  <path d="M190,270 Q190,234 240,234 Q290,234 290,270 L280,270 Q280,244 240,244 Q200,244 200,270 Z" fill="url(#tgh-arch)"/>
  <path d="M190,270 Q190,234 240,234 Q290,234 290,270 L280,270 Q280,244 240,244 Q200,244 200,270 Z" fill="none" stroke="#6c5c46" stroke-width="1" opacity="0.7"/>
  <!-- voussoir divisions (the two that sit below the jetty and stay visible) -->
  <g stroke="#6c5c46" stroke-width="1.1" opacity="0.6">
    <line x1="196" y1="258" x2="205" y2="262"/>
    <line x1="284" y1="258" x2="275" y2="262"/>
  </g>
  <!-- arch highlight rim on the visible left shoulder -->
  <path d="M191,268 Q190,258 194,251" fill="none" stroke="#efe4cc" stroke-width="1.6" opacity="0.6"/>

  <!-- ivy climbing the right pier -->
  <g>
    <path d="M340,388 C336,360 346,338 340,308 C337,290 344,272 340,256" fill="none" stroke="#3f7a44" stroke-width="2.4"/>
    <path d="M340,372 q-9,-3 -13,-10 M342,352 q8,-2 12,-9 M340,330 q-9,-2 -13,-9 M341,308 q8,-2 12,-8 M340,286 q-9,-2 -12,-8" fill="none" stroke="#4a8f52" stroke-width="1.8"/>
    <circle cx="326" cy="360" r="3.2" fill="#4f9d5d"/><circle cx="354" cy="342" r="3" fill="#57a862"/>
    <circle cx="326" cy="320" r="3" fill="#4f9d5d"/><circle cx="353" cy="299" r="2.8" fill="#57a862"/>
    <circle cx="327" cy="277" r="2.6" fill="#4f9d5d"/><circle cx="345" cy="372" r="2.6" fill="#57a862"/>
  </g>

  <!-- ===== jettied upper floor beam ===== -->
  <!-- soffit shadow under overhang -->
  <rect x="126" y="252" width="228" height="7" fill="#241a0f" opacity="0.55" filter="url(#tgh-soft)"/>
  <!-- corbel blocks under the beam -->
  <polygon points="150,252 162,252 159,261 153,261" fill="#5a3c22"/>
  <polygon points="318,252 330,252 327,261 321,261" fill="#452c18"/>
  <!-- jetty front face -->
  <polygon points="122,252 358,252 358,232 122,232" fill="url(#tgh-jetty)"/>
  <polygon points="358,252 372,242 372,224 358,232" fill="#3a2512"/>
  <!-- jetty top ledge (visible to the right of the wall, seats the side wall) -->
  <polygon points="340,232 358,232 372,224 360,222" fill="#96713f"/>
  <!-- jetty timber highlight & grain -->
  <line x1="122" y1="234" x2="358" y2="234" stroke="#a67a4c" stroke-width="1.4" opacity="0.6"/>
  <g stroke="#3a2512" stroke-width="1" opacity="0.4">
    <line x1="122" y1="244" x2="358" y2="244"/><line x1="160" y1="232" x2="160" y2="252"/>
    <line x1="240" y1="232" x2="240" y2="252"/><line x1="320" y1="232" x2="320" y2="252"/>
  </g>

  <!-- ===== house body ===== -->
  <!-- right side wall (shaded) -->
  <polygon points="340,232 360,222 360,142 340,150" fill="url(#tgh-wallS)"/>
  <!-- front wall (lit plaster) -->
  <polygon points="140,232 340,232 340,150 140,150" fill="url(#tgh-wallF)"/>
  <!-- front vertical corner highlight -->
  <line x1="140" y1="150" x2="140" y2="232" stroke="#fff6de" stroke-width="1.4" opacity="0.5"/>
  <line x1="340" y1="150" x2="340" y2="232" stroke="#fff2d2" stroke-width="1.2" opacity="0.35"/>
  <!-- timber framing (tudor) -->
  <g stroke="#6e4a30" stroke-width="3.4" opacity="0.85" fill="none" stroke-linecap="square">
    <line x1="140" y1="154" x2="340" y2="154"/>
    <line x1="140" y1="230" x2="340" y2="230"/>
    <line x1="140" y1="192" x2="340" y2="192"/>
    <line x1="168" y1="154" x2="168" y2="230"/>
    <line x1="312" y1="154" x2="312" y2="230"/>
    <line x1="206" y1="192" x2="206" y2="230"/>
    <line x1="274" y1="192" x2="274" y2="230"/>
  </g>
  <g stroke="#5a3a24" stroke-width="2.4" opacity="0.7" fill="none">
    <line x1="140" y1="192" x2="166" y2="230"/>
    <line x1="340" y1="192" x2="314" y2="230"/>
    <line x1="168" y1="154" x2="196" y2="180"/>
    <line x1="312" y1="154" x2="284" y2="180"/>
  </g>
  <!-- side-wall timber -->
  <g stroke="#54371f" stroke-width="2.2" opacity="0.7" fill="none">
    <line x1="340" y1="152" x2="360" y2="144"/><line x1="340" y1="192" x2="360" y2="184"/>
    <line x1="350" y1="148" x2="350" y2="225"/>
  </g>

  <!-- left front window (glowing) -->
  <rect x="150" y="200" width="34" height="26" rx="2" fill="url(#tgh-winglow)" opacity="0.9" transform="translate(-8,-8)"/>
  <rect x="150" y="200" width="30" height="24" fill="#5a3f26"/>
  <rect x="153" y="203" width="24" height="18" fill="url(#tgh-win)"/>
  <g stroke="#4a331d" stroke-width="1.1">
    <line x1="165" y1="203" x2="165" y2="221"/><line x1="153" y1="212" x2="177" y2="212"/>
  </g>
  <!-- right front window (glowing, aligned with the left) -->
  <rect x="289" y="194" width="36" height="30" rx="2" fill="url(#tgh-winglow)" opacity="0.85"/>
  <rect x="292" y="200" width="30" height="24" fill="#4a331d"/>
  <rect x="295" y="203" width="24" height="18" fill="url(#tgh-win)"/>
  <g stroke="#3a2715" stroke-width="1.1">
    <line x1="307" y1="203" x2="307" y2="221"/><line x1="295" y1="212" x2="319" y2="212"/>
  </g>

  <!-- side-wall small window (matched to the wall's recede plane) -->
  <polygon points="346,182 356,180 356,202 346,204" fill="#3a2715"/>
  <polygon points="348,184 355,182.6 355,200.6 348,202" fill="url(#tgh-win)"/>

  <!-- ===== oriel bay window over the gate (hero glow) ===== -->
  <ellipse cx="240" cy="212" rx="40" ry="30" fill="url(#tgh-winglow)" opacity="0.75"/>
  <!-- little bay roof -->
  <polygon points="214,178 266,178 240,160" fill="url(#tgh-roofF)"/>
  <polygon points="214,178 266,178 240,160" fill="none" stroke="#2f4f60" stroke-width="1" opacity="0.6"/>
  <!-- bay side facets -->
  <polygon points="216,180 224,178 224,220 214,214" fill="#c9b58c"/>
  <polygon points="264,178 256,178 256,220 266,214" fill="#a08a63"/>
  <!-- bay front glowing pane -->
  <rect x="224" y="178" width="32" height="42" fill="#4a331d"/>
  <rect x="227" y="181" width="26" height="36" fill="url(#tgh-win)"/>
  <g stroke="#4a331d" stroke-width="1.2">
    <line x1="240" y1="181" x2="240" y2="217"/>
    <line x1="227" y1="193" x2="253" y2="193"/><line x1="227" y1="205" x2="253" y2="205"/>
  </g>
  <!-- diamond leading in the panes -->
  <g stroke="#c99a44" stroke-width="0.7" opacity="0.6">
    <line x1="227" y1="187" x2="240" y2="181"/><line x1="253" y1="187" x2="240" y2="181"/>
    <line x1="227" y1="199" x2="240" y2="193"/><line x1="253" y1="199" x2="240" y2="193"/>
  </g>
  <!-- oriel corbel resting on the jetty beam -->
  <polygon points="230,220 250,220 240,233" fill="#5a3c22"/>
  <polygon points="230,220 250,220 240,233" fill="none" stroke="#3a2512" stroke-width="1" opacity="0.6"/>

  <!-- ===== hipped slate roof ===== -->
  <!-- eave shadow on wall -->
  <rect x="140" y="150" width="200" height="5" fill="#2a2313" opacity="0.4"/>
  <!-- right hip slope (shaded, overhangs the side wall) -->
  <polygon points="348,146 366,131 320,98" fill="url(#tgh-roofS)"/>
  <!-- left hip slope (near, a touch lit) -->
  <polygon points="128,150 148,124 166,104" fill="#6fa0b7"/>
  <!-- front slope (lit) -->
  <polygon points="128,150 348,146 320,98 166,104" fill="url(#tgh-roofF)"/>
  <!-- slate courses on front slope -->
  <g stroke="#3d6076" stroke-width="1.3" opacity="0.55" fill="none">
    <path d="M138,141 Q243,138 342,137"/>
    <path d="M148,132 Q244,129 336,128"/>
    <path d="M158,123 Q245,120 330,119"/>
    <path d="M168,114 Q244,111 325,110"/>
  </g>
  <g stroke="#93c0d3" stroke-width="0.8" opacity="0.5" fill="none">
    <path d="M143,136 Q243,133 338,132"/>
    <path d="M163,118 Q244,115 328,114"/>
  </g>
  <!-- slate tab marks -->
  <g stroke="#33566a" stroke-width="0.9" opacity="0.45">
    <line x1="200" y1="150" x2="204" y2="141"/><line x1="240" y1="149" x2="243" y2="141"/>
    <line x1="280" y1="148" x2="282" y2="140"/><line x1="222" y1="141" x2="225" y2="132"/>
    <line x1="262" y1="140" x2="264" y2="132"/>
  </g>
  <!-- moss patches on roof -->
  <g fill="#4f9d5d" opacity="0.75">
    <path d="M186,146 q10,-5 18,1 q-8,5 -18,-1Z"/>
    <path d="M300,144 q9,-4 15,1 q-7,4 -15,-1Z"/>
    <ellipse cx="230" cy="147" rx="9" ry="3.2"/>
  </g>
  <g fill="#69b874" opacity="0.6"><ellipse cx="188" cy="145" rx="4" ry="1.8"/><ellipse cx="304" cy="143" rx="3.5" ry="1.6"/></g>
  <!-- ridge cap -->
  <polygon points="166,104 320,98 320,101 166,107" fill="#7fb0c6"/>
  <line x1="166" y1="105" x2="320" y2="99" stroke="#2f4f60" stroke-width="1.6" opacity="0.7"/>
  <!-- left rim light on roof -->
  <line x1="128" y1="150" x2="166" y2="104" stroke="#d8eef5" stroke-width="1.4" opacity="0.5"/>

  <!-- finial with a glowing orb at the near ridge end (seated on the ridge) -->
  <ellipse cx="166" cy="104" rx="4.6" ry="1.9" fill="#33291d"/>
  <line x1="166" y1="103" x2="166" y2="90" stroke="#3a2f22" stroke-width="2.4"/>
  <circle cx="166" cy="86" r="6" fill="url(#tgh-wisp)"/>
  <circle cx="166" cy="86" r="2.4" fill="#fff6d8"/>

  <!-- ===== chimney with smoke (seated on the slope near the ridge) ===== -->
  <g>
    <!-- flashing / base shadow where the stack meets the roof plane -->
    <ellipse cx="311" cy="131" rx="15" ry="4.6" fill="#2a2313" opacity="0.5" filter="url(#tgh-soft)"/>
    <polygon points="300,132 316,130 316,86 300,88" fill="#8a7563"/>
    <!-- side face recedes up-right like the rest of the house -->
    <polygon points="316,130 324,126 324,82 316,86" fill="#574236"/>
    <g stroke="#4a382c" stroke-width="1" opacity="0.6">
      <line x1="300" y1="114" x2="316" y2="112"/><line x1="300" y1="98" x2="316" y2="96"/>
    </g>
    <!-- cap: top face + front and side lips -->
    <polygon points="296,90 320,88 328,84 304,86" fill="#6a5544"/>
    <polygon points="296,90 320,88 320,92 296,94" fill="#55432f"/>
    <polygon points="320,88 328,84 328,88 320,92" fill="#453626"/>
    <ellipse cx="312" cy="87.5" rx="8" ry="3.2" fill="#ffb347" opacity="0.5" filter="url(#tgh-soft)"/>
    <ellipse cx="312" cy="87.5" rx="3.4" ry="1.6" fill="#ffe9a8"/>
  </g>
  <g fill="none" filter="url(#tgh-smokeblur)" opacity="0.7">
    <path d="M312,86 C306,70 322,60 316,48 C310,34 328,26 326,12" stroke="url(#tgh-smoke)" stroke-width="11" stroke-linecap="round"/>
  </g>
  <g fill="#d6d2e0" opacity="0.45">
    <circle cx="313" cy="66" r="6"/><circle cx="319" cy="50" r="7"/><circle cx="323" cy="30" r="8"/><circle cx="327" cy="12" r="9"/>
  </g>

  <!-- ===== the lantern over the arch (star warm feature) ===== -->
  <!-- big soft halo -->
  <circle cx="240" cy="272" r="46" fill="url(#tgh-lanternglow)" filter="url(#tgh-bigglow)"/>
  <!-- wrought-iron bracket from under the jetty -->
  <path d="M240,252 C240,258 240,258 240,260" stroke="#241a10" stroke-width="3" fill="none"/>
  <path d="M232,254 q8,-4 16,0" stroke="#241a10" stroke-width="2" fill="none"/>
  <line x1="240" y1="252" x2="240" y2="262" stroke="#1c140b" stroke-width="2.4"/>
  <!-- lantern cap -->
  <polygon points="230,264 250,264 246,258 234,258" fill="#2a2016"/>
  <circle cx="240" cy="257" r="2" fill="#1c140b"/>
  <!-- lantern body (glass, glowing) -->
  <polygon points="231,265 249,265 251,285 240,290 229,285" fill="url(#tgh-lantern)"/>
  <!-- lantern frame -->
  <g stroke="#241a10" stroke-width="1.8" fill="none">
    <polygon points="231,265 249,265 251,285 240,290 229,285"/>
    <line x1="240" y1="265" x2="240" y2="290"/>
  </g>
  <!-- inner flame -->
  <ellipse cx="240" cy="277" rx="3.2" ry="5.2" fill="#fffbe6"/>
  <ellipse cx="240" cy="279" rx="1.6" ry="3" fill="#ff9d3a"/>
  <!-- lantern base finial -->
  <polygon points="236,290 244,290 240,296" fill="#2a2016"/>

  <!-- ===== hanging sign off the left pier ===== -->
  <line x1="200" y1="300" x2="218" y2="300" stroke="#241a10" stroke-width="2"/>
  <line x1="206" y1="300" x2="206" y2="306" stroke="#241a10" stroke-width="1.4"/>
  <line x1="216" y1="300" x2="216" y2="306" stroke="#241a10" stroke-width="1.4"/>
  <rect x="200" y="306" width="24" height="18" rx="2" fill="#6e4a30"/>
  <rect x="200" y="306" width="24" height="18" rx="2" fill="none" stroke="#3a2512" stroke-width="1.4"/>
  <path d="M212,310 q-4,4 0,10 q4,-6 0,-10Z" fill="#8fd699"/>
  <circle cx="212" cy="315" r="1.4" fill="#4f9d5d"/>

  <!-- ===== foliage & ground detail ===== -->
  <g stroke-linecap="round" fill="none">
    <path d="M110,388 l-2,-9 M114,388 l1,-10 M118,388 l4,-8" stroke="#3f8a4f" stroke-width="2"/>
    <path d="M360,388 l2,-9 M356,388 l-1,-10 M352,388 l-4,-8" stroke="#3f8a4f" stroke-width="2"/>
    <path d="M150,408 l-2,-8 M154,408 l1,-10" stroke="#438f52" stroke-width="2"/>
    <path d="M330,410 l2,-8 M326,410 l-1,-10" stroke="#367a45" stroke-width="2"/>
    <path d="M186,440 l-2,-8 M190,440 l1,-9 M194,440 l4,-7" stroke="#4aa05a" stroke-width="2"/>
    <path d="M298,438 l2,-8 M294,438 l-1,-9" stroke="#4aa05a" stroke-width="2"/>
  </g>
  <!-- mushrooms by the left pier base (seated with a ground shadow) -->
  <g>
    <ellipse cx="124" cy="410" rx="14" ry="3.8" fill="#05070a" opacity="0.35"/>
    <ellipse cx="120" cy="404" rx="4" ry="8" fill="#efe6d2"/>
    <path d="M111,398 q9,-13 18,0 q-9,4 -18,0Z" fill="#d9584a"/>
    <circle cx="117" cy="395" r="1.4" fill="#fbeede"/><circle cx="123" cy="397" r="1.2" fill="#fbeede"/>
    <ellipse cx="132" cy="410" rx="3" ry="6" fill="#efe6d2"/>
    <path d="M125,406 q7,-10 14,0 q-7,3 -14,0Z" fill="#c94a3e"/>
  </g>
  <!-- wildflowers scattered on the grass -->
  <g>
    <circle cx="360" cy="404" r="2.6" fill="#c2b280"/><circle cx="360" cy="404" r="1" fill="#ffe9a8"/>
    <circle cx="344" cy="396" r="2.4" fill="#d9584a"/><circle cx="344" cy="396" r="0.9" fill="#ffe9a8"/>
    <circle cx="112" cy="366" r="2.4" fill="#5d8fa8"/><circle cx="112" cy="366" r="0.9" fill="#ffe9a8"/>
    <circle cx="150" cy="382" r="2.4" fill="#c2b280"/><circle cx="150" cy="382" r="0.9" fill="#ffe9a8"/>
    <circle cx="322" cy="418" r="2.4" fill="#7f8fd1"/><circle cx="322" cy="418" r="0.9" fill="#ffe9a8"/>
    <circle cx="168" cy="420" r="2.2" fill="#d9584a"/><circle cx="168" cy="420" r="0.8" fill="#ffe9a8"/>
  </g>

  <!-- ===== magical wisp motes & fireflies ===== -->
  <g filter="url(#tgh-glow)">
    <circle cx="104" cy="196" r="8" fill="url(#tgh-wisp)"/>
    <circle cx="392" cy="230" r="7" fill="url(#tgh-wisp)"/>
    <circle cx="120" cy="322" r="6" fill="url(#tgh-wisp)"/>
    <circle cx="412" cy="330" r="6" fill="url(#tgh-wisp)"/>
    <circle cx="240" cy="118" r="5" fill="url(#tgh-wisp)"/>
    <circle cx="86" cy="286" r="5" fill="url(#tgh-wisp)"/>
    <!-- fireflies drawn to the lantern -->
    <circle cx="206" cy="272" r="4" fill="url(#tgh-wisp)"/>
    <circle cx="278" cy="258" r="3.6" fill="url(#tgh-wisp)"/>
    <circle cx="262" cy="300" r="3.4" fill="url(#tgh-wisp)"/>
  </g>
  <g fill="#fff6d8">
    <circle cx="104" cy="196" r="1.8"/><circle cx="392" cy="230" r="1.6"/>
    <circle cx="120" cy="322" r="1.4"/><circle cx="412" cy="330" r="1.4"/>
    <circle cx="240" cy="118" r="1.2"/><circle cx="86" cy="286" r="1.2"/>
    <circle cx="206" cy="272" r="1.1"/><circle cx="278" cy="258" r="1"/><circle cx="262" cy="300" r="1"/>
  </g>
</svg>
